# Blender 4.0.1
# www.blender.org
mtllib wplatonic_tetrahedron.mtl
o Cone
v 0.000000 -0.494105 -0.986171
v 0.000000 -0.502323 -1.013829
v 0.854049 -0.494105 0.493086
v 0.878002 -0.502323 0.506914
v -0.854049 -0.494105 0.493086
v -0.878002 -0.502323 0.506914
v 0.000000 0.905605 0.000000
v 0.000000 0.926822 0.000000
v 0.008135 -0.487922 -0.978634
v 0.008135 0.889641 -0.004697
v 0.851589 -0.487922 0.482272
v 0.843454 -0.487922 0.496362
v 0.000000 0.889641 0.009393
v -0.843454 -0.487922 0.496362
v 0.000000 -0.498214 -0.970000
v 0.840045 -0.498214 0.485000
v -0.840045 -0.498214 0.485000
v -0.851589 -0.487922 0.482272
v -0.008135 0.889641 -0.004697
v -0.008135 -0.487922 -0.978634
vn -0.4395 -0.5179 0.7339
vn 0.9195 0.2272 -0.3208
vn -0.8553 -0.5179 0.0137
vn 0.7376 0.2272 -0.6359
vn -0.7652 0.4683 0.4418
vn 0.6986 0.5911 -0.4033
vn -0.4158 -0.5179 -0.7476
vn -0.1819 0.2272 0.9567
vn 0.4158 -0.5179 -0.7476
vn 0.1819 0.2272 0.9567
vn -0.0000 0.4683 -0.8836
vn -0.0000 0.5911 0.8066
vn -0.3924 0.8915 0.2265
vn -0.1596 -0.9829 0.0921
vn -0.0000 0.8915 -0.4531
vn -0.0000 -0.9829 -0.1843
vn 0.3924 0.8915 0.2265
vn 0.1596 -0.9829 0.0921
vn 0.8553 -0.5179 0.0137
vn -0.7376 0.2272 -0.6359
vn 0.4395 -0.5179 0.7339
vn -0.9195 0.2272 -0.3208
vn 0.7652 0.4683 0.4418
vn -0.6986 0.5911 -0.4033
vt 0.250000 0.490000
vt 0.250000 0.250000
vt 0.457846 0.130000
vt 0.042154 0.130000
s 0
f 9/1/1 10/2/1 7/2/1 1/1/1
f 10/2/2 9/1/2 2/1/2 8/2/2
f 10/2/3 11/3/3 3/3/3 7/2/3
f 11/3/4 10/2/4 8/2/4 4/3/4
f 11/3/5 9/1/5 1/1/5 3/3/5
f 9/1/6 11/3/6 4/3/6 2/1/6
f 12/3/7 13/2/7 7/2/7 3/3/7
f 13/2/8 12/3/8 4/3/8 8/2/8
f 13/2/9 14/4/9 5/4/9 7/2/9
f 14/4/10 13/2/10 8/2/10 6/4/10
f 14/4/11 12/3/11 3/3/11 5/4/11
f 12/3/12 14/4/12 6/4/12 4/3/12
f 15/1/13 16/3/13 3/3/13 1/1/13
f 16/3/14 15/1/14 2/1/14 4/3/14
f 16/3/15 17/4/15 5/4/15 3/3/15
f 17/4/16 16/3/16 4/3/16 6/4/16
f 17/4/17 15/1/17 1/1/17 5/4/17
f 15/1/18 17/4/18 6/4/18 2/1/18
f 18/4/19 19/2/19 7/2/19 5/4/19
f 19/2/20 18/4/20 6/4/20 8/2/20
f 19/2/21 20/1/21 1/1/21 7/2/21
f 20/1/22 19/2/22 8/2/22 2/1/22
f 20/1/23 18/4/23 5/4/23 1/1/23
f 18/4/24 20/1/24 2/1/24 6/4/24
